<svg xmlns="http://www.w3.org/2000/svg" width="24" height="24" viewBox="0 0 24 24"><defs><style>.a,.b{fill:#1b1b1b;}.a{opacity:0;}</style></defs><g transform="translate(-1260.025 -1631.873)"><rect class="a" width="24" height="24" transform="translate(1260.025 1631.873)"/><path class="b" d="M1282.474,1643.167l-4.632-1.118-2.925-2.2a6.267,6.267,0,0,0-3.347-.982l-3.03.028a4.689,4.689,0,0,0-2.324.618l-3.287,1.86-.019,0-1.015-.031a1.472,1.472,0,0,0-1.41,1.528c0,1.388-.042,1.594-.042,2.286a1.752,1.752,0,0,0,1.239,1.719l.883.336h.008l.941.044a2.179,2.179,0,0,0,4.344.2l3.414.208h6.655a2.186,2.186,0,0,0,4.287-.01l.609,0a1.692,1.692,0,0,0,1.618-1.739v-.089A2.653,2.653,0,0,0,1282.474,1643.167Zm-16.778,4.925a.875.875,0,1,1,.874-.875A.876.876,0,0,1,1265.7,1648.092Zm14.374.02a.875.875,0,1,1,.875-.875A.875.875,0,0,1,1280.069,1648.112Z" transform="translate(-0.417 0.006)"/></g></svg>