<svg xmlns="http://www.w3.org/2000/svg" width="24" height="24" viewBox="0 0 24 24"><path class="b" d="M-661-7393h0l-6-3-6.3,2.7a.494.494,0,0,1-.2.041.5.5,0,0,1-.276-.083.5.5,0,0,1-.225-.417V-7408l2-.858v12.825l5.065-2.17,6,3,4.935-2.117v-12.823l1.3-.558a.5.5,0,0,1,.2-.04.5.5,0,0,1,.276.083.5.5,0,0,1,.223.417V-7396l-7,3Zm-3-6.515h0l-4.242-4.241A5.962,5.962,0,0,1-670-7408a5.962,5.962,0,0,1,1.757-4.243A5.961,5.961,0,0,1-664-7414a5.961,5.961,0,0,1,4.243,1.757,6.007,6.007,0,0,1,0,8.485l-4.242,4.241Zm0-9.985a1.5,1.5,0,0,0-1.5,1.5,1.5,1.5,0,0,0,1.5,1.5,1.5,1.5,0,0,0,1.5-1.5A1.5,1.5,0,0,0-664-7409.5Z" transform="translate(676 7415)"/></svg>