<svg xmlns="http://www.w3.org/2000/svg" width="24" height="24" viewBox="0 0 24 24"><defs><style>.a,.b{fill:#1b1b1b;}.a{opacity:0;}</style></defs><g transform="translate(-1224 -1631.873)"><rect class="a" width="24" height="24" transform="translate(1224 1631.873)"/><path class="b" d="M1249.988,1645.068l-.55-1.5a1.531,1.531,0,0,0-1.414-1.043l-4.4-.689-3.855-2.88a2.759,2.759,0,0,0-1.7-.582h-8.62a1.5,1.5,0,0,0-1.29.78l-1.681,2.935a3.081,3.081,0,0,0-.409,1.534v3.33a1.6,1.6,0,0,0,1.523,1.66h2.231a2.485,2.485,0,0,0,4.965,0h7.709a2.485,2.485,0,0,0,4.965,0h1.086a1.6,1.6,0,0,0,1.522-1.66v-1.423A1.346,1.346,0,0,0,1249.988,1645.068Zm-17.682,4.421a1,1,0,1,1,1-1A1,1,0,0,1,1232.306,1649.49Zm12.674,0a1,1,0,1,1,1-1A1,1,0,0,1,1244.979,1649.49Z" transform="translate(-2.069 -0.5)"/></g></svg>