<svg xmlns="http://www.w3.org/2000/svg" width="24" height="24" viewBox="0 0 24 24"><defs><style>.a,.b{fill:#cecece;}.a{opacity:0;}</style></defs><rect class="a" width="24" height="24"/><g transform="translate(0.032 3.529)"><path class="b" d="M1211.966,1010.732c0-.1-.013-.207-.019-.31s-.012-.229-.023-.343c0-.026-.005-.052-.008-.077-.006-.05-.01-.1-.017-.15-.013-.1-.033-.205-.05-.308s-.031-.209-.051-.313l-.018-.092c-.011-.052-.021-.1-.033-.156-.023-.1-.052-.194-.078-.291s-.046-.192-.075-.286c-.012-.044-.026-.088-.04-.131s-.028-.094-.044-.141c-.03-.09-.067-.177-.1-.266s-.061-.177-.1-.264c-.025-.061-.051-.122-.077-.183-.016-.036-.029-.072-.045-.107-.036-.081-.079-.158-.117-.237s-.076-.17-.119-.252-.081-.149-.123-.223c-.052-.095-.11-.187-.166-.28s-.1-.169-.151-.252-.092-.136-.139-.205c-.022-.031-.041-.064-.063-.095-.046-.065-.1-.124-.144-.187-.059-.079-.116-.16-.178-.237-.044-.055-.089-.109-.135-.163-.029-.035-.057-.071-.087-.106-.054-.063-.112-.121-.168-.182-.071-.078-.142-.155-.216-.23-.038-.039-.075-.078-.115-.116s-.071-.073-.109-.108c-.06-.058-.124-.111-.186-.166-.087-.078-.175-.155-.265-.23-.025-.021-.047-.044-.073-.065l-.027-.02-.118-.094c-.064-.05-.131-.1-.2-.144-.1-.072-.2-.143-.3-.211-.04-.028-.079-.059-.12-.085l-.1-.067c-.068-.043-.139-.081-.208-.122-.1-.06-.2-.119-.309-.176-.057-.031-.112-.066-.17-.095l-.08-.04c-.076-.038-.154-.069-.231-.105-.1-.046-.2-.093-.3-.136-.074-.031-.148-.066-.223-.1l-.05-.018c-.084-.032-.171-.057-.256-.086l-.012-.005c-.069-.024-.133-.054-.2-.076-.031-.01-.063-.016-.094-.026-.082-.025-.164-.052-.247-.075s-.177-.041-.266-.063l-.051-.012c-.109-.026-.217-.055-.325-.077-.065-.013-.129-.027-.2-.039l-.063-.012c-.093-.015-.184-.022-.277-.035-.122-.017-.244-.037-.367-.049-.045,0-.09-.01-.135-.013l-.095-.008c-.1-.008-.2-.007-.3-.011-.121,0-.242-.011-.362-.011h-.092l-.127,0c-.1,0-.207.013-.31.019s-.229.012-.343.023l-.078.008-.149.016c-.1.013-.2.033-.307.05s-.211.031-.315.052l-.091.018-.156.033c-.1.022-.194.052-.291.077s-.192.047-.286.075l-.131.041c-.047.014-.094.028-.141.044-.09.03-.177.067-.266.1s-.178.061-.264.1c-.061.024-.122.051-.183.077-.035.015-.072.029-.107.045-.081.035-.158.079-.238.117s-.169.076-.251.119-.149.081-.223.122c-.095.053-.187.111-.28.167s-.17.1-.253.151c-.068.045-.135.091-.2.138-.032.022-.065.042-.1.064-.065.046-.124.1-.187.143-.079.06-.16.117-.238.179l-.162.134c-.035.03-.071.057-.106.087-.063.055-.121.113-.182.169-.078.071-.155.142-.231.216-.038.038-.077.075-.115.114s-.073.072-.108.109c-.058.061-.111.124-.166.186-.079.088-.155.176-.23.267-.021.025-.044.046-.065.072-.007.008-.012.017-.019.026-.032.04-.064.079-.095.119-.051.064-.1.131-.144.2-.073.1-.143.2-.212.3-.027.04-.058.078-.084.119s-.045.07-.068.106c-.043.068-.08.139-.121.208-.06.1-.119.2-.176.309-.031.057-.066.112-.1.169-.014.027-.027.054-.04.081-.038.076-.069.154-.105.231-.046.1-.093.2-.136.3-.031.074-.066.147-.095.222l-.019.051c-.033.085-.057.172-.087.258l0,.009c-.023.069-.054.133-.076.2-.01.032-.016.064-.026.095-.025.082-.052.164-.075.246s-.041.178-.063.266l-.012.052c-.026.108-.055.216-.077.325-.013.065-.027.129-.039.194l-.012.064c-.016.092-.023.184-.036.277-.017.122-.036.244-.048.366-.005.045-.01.09-.013.135s-.006.064-.008.1c-.008.1-.007.2-.011.3,0,.121-.011.241-.011.361v.093c0,.042,0,.084,0,.126,0,.105.013.207.019.311s.012.229.023.342l.008.078c.005.05.01.1.016.149.013.1.033.206.05.309s.031.209.052.313l.018.092c.011.052.021.1.033.156.022.1.052.194.078.291s.046.192.074.286c.013.044.027.087.04.131s.029.094.044.14c.03.091.068.178.1.267s.06.177.095.264c.025.061.052.121.077.182.016.036.029.072.045.108.036.081.08.158.118.237s.076.17.119.252.08.148.121.222c.053.1.112.188.168.281s.1.17.151.252.091.136.138.2c.022.031.042.064.064.1.046.065.1.124.144.187.059.079.115.159.177.237.044.055.089.109.135.163.029.035.057.071.087.106.055.062.113.121.169.182.071.077.141.155.215.23l.114.115.11.109c.061.057.125.111.187.166.087.078.175.155.265.23.025.021.047.044.073.065.008.007.017.012.026.019.039.032.078.064.119.095.064.05.131.1.2.143.1.073.2.144.3.212.04.028.078.058.119.085l.106.067c.068.043.139.081.208.122.1.06.2.119.309.176.056.03.112.065.169.1l.081.04c.076.038.154.069.231.1.1.046.2.093.3.136.074.031.147.066.222.095l.051.019c.085.033.172.057.258.087l.009,0c.069.024.133.055.2.077.032.01.064.016.095.025.082.026.164.053.246.076s.178.041.267.063l.05.012c.109.026.217.055.326.077.065.013.129.027.194.039l.064.011c.092.016.184.023.276.036.122.017.244.037.366.049l.137.013.1.008c.1.007.2.007.3.011.121,0,.242.011.362.011h.093l.126,0c.1,0,.207-.013.311-.019s.229-.012.342-.023l.078-.008.15-.016c.1-.013.2-.034.306-.05s.21-.031.315-.052l.092-.018c.052-.011.1-.021.156-.033.1-.023.193-.052.29-.078s.192-.046.287-.074l.131-.041c.047-.015.094-.028.141-.044.09-.03.177-.067.266-.1s.177-.061.263-.1c.062-.024.122-.051.183-.077l.108-.045c.081-.036.158-.079.238-.118s.168-.075.25-.118.149-.081.224-.122c.095-.053.187-.111.28-.167s.169-.1.251-.151.137-.092.2-.139c.032-.021.064-.041.1-.063.065-.046.124-.1.188-.144s.159-.116.236-.178c.056-.044.11-.089.164-.135.035-.029.071-.057.1-.087.063-.054.121-.112.182-.168.078-.071.155-.142.231-.215.038-.039.077-.076.115-.115s.073-.072.109-.11c.057-.06.11-.124.166-.185.078-.088.155-.176.23-.267.021-.025.044-.046.064-.072l.02-.026c.032-.04.064-.079.095-.12.05-.064.1-.13.143-.2.073-.1.143-.2.212-.3.027-.04.058-.079.085-.119s.045-.071.067-.106c.043-.068.081-.139.121-.208.061-.1.12-.2.176-.309.031-.057.066-.112.1-.169.014-.027.026-.054.04-.081.037-.076.069-.154.1-.231.047-.1.093-.2.136-.3.032-.074.067-.147.1-.222.007-.017.013-.035.019-.052.032-.083.056-.169.086-.254l0-.012c.024-.069.054-.134.077-.2.01-.032.015-.064.025-.1.026-.082.053-.163.076-.246l0-.012.006-.021.005-.021c.019-.069.03-.14.047-.209l.013-.054c.026-.108.055-.217.077-.325.013-.065.027-.13.038-.2,0-.021.009-.042.012-.063.016-.093.023-.184.036-.277.017-.122.037-.244.049-.366,0-.046.009-.091.013-.137,0-.031.006-.062.008-.094.007-.1.007-.2.011-.3,0-.121.011-.241.011-.362v-.092C1211.967,1010.816,1211.967,1010.774,1211.966,1010.732Zm-8-5.671c.036.007.073.011.11.018.1.02.207.044.31.069s.195.049.293.078.192.061.286.094.189.069.282.107l.115.05.144.064.025.012c.082.039.163.079.243.121.047.025.092.051.138.077.063.036.127.072.189.111s.117.072.175.11c.034.022.068.047.1.07.084.059.168.12.25.183l.12.094c.035.028.07.059.105.088.079.068.156.137.231.208.033.031.067.062.1.094s.07.073.1.109l.05.053c.044.047.086.093.128.141s.075.084.111.127l.008.01-1.113.643a1.671,1.671,0,0,1-2.506-1.447Zm-6.618,8-.013-.033-.014-.041c-.027-.075-.054-.15-.078-.227s-.038-.129-.055-.194l-.012-.041-.039-.155c-.013-.056-.028-.112-.04-.168s-.025-.134-.037-.2-.026-.161-.037-.242c-.006-.042-.013-.085-.018-.128-.007-.065-.011-.131-.016-.2-.006-.082-.011-.165-.014-.247,0-.047-.005-.093-.005-.139,0-.066,0-.132,0-.2v-.042c0-.054,0-.108.006-.161s.006-.126.012-.189.017-.156.027-.235l.009-.068.005-.04c.012-.084.025-.168.041-.252.02-.1.044-.208.069-.312s.049-.2.078-.292.061-.192.094-.287c.011-.03.023-.059.034-.088l1.111.641a1.672,1.672,0,0,1,0,2.894Zm4.618,3.82c-.037-.006-.073-.01-.109-.017-.1-.02-.208-.044-.312-.069s-.195-.049-.292-.078-.192-.061-.286-.1-.19-.068-.282-.106l-.119-.052-.135-.06-.032-.015c-.082-.039-.163-.079-.242-.121-.046-.024-.09-.05-.135-.075-.065-.037-.13-.074-.193-.113s-.116-.071-.173-.109c-.034-.022-.067-.046-.1-.069-.085-.06-.169-.121-.253-.185-.039-.031-.079-.061-.118-.093s-.07-.058-.1-.088c-.08-.068-.157-.137-.232-.208-.034-.032-.067-.062-.1-.094s-.071-.073-.106-.11l-.049-.052c-.044-.047-.087-.094-.129-.142l-.11-.126-.008-.011,1.113-.642a1.671,1.671,0,0,1,2.506,1.447Zm0-10.535a1.671,1.671,0,0,1-2.506,1.447l-1.113-.643.055-.065c.068-.08.137-.157.208-.232.032-.032.062-.066.094-.1s.073-.071.109-.106l.053-.05.141-.128c.042-.037.084-.074.126-.109s.1-.081.154-.121l.075-.059.06-.045c.059-.043.118-.085.178-.126.089-.06.181-.119.274-.175.077-.046.155-.092.235-.134s.19-.1.286-.145c.08-.038.159-.075.24-.109.047-.02.094-.037.141-.055s.089-.035.134-.051l.042-.015c.075-.027.149-.054.226-.078s.127-.037.19-.054l.044-.012.156-.04c.056-.013.112-.028.169-.04s.132-.025.2-.036l.031-.005Zm1.494,5.5a1,1,0,1,1,.375-1.364A1,1,0,0,1,1203.464,1011.84Zm4.068,3.019c-.067.079-.136.155-.206.23-.031.033-.062.066-.094.1s-.075.073-.112.109l-.051.048c-.046.043-.093.086-.14.127s-.084.074-.127.11-.1.082-.155.123l-.075.058-.057.042c-.059.044-.119.086-.179.127-.09.061-.181.119-.275.176-.077.046-.155.091-.234.134-.095.052-.191.1-.287.145-.079.038-.159.075-.239.109l-.135.053c-.048.018-.095.037-.143.054l-.039.014c-.075.027-.15.054-.226.078s-.126.036-.189.054l-.048.013q-.078.021-.156.039c-.055.013-.11.028-.166.04s-.133.025-.2.036l-.03.005V1015.6a1.671,1.671,0,0,1,2.506-1.447l1.113.642Zm1.431-3.766,0,.041q0,.081-.006.162c0,.063-.006.126-.011.189s-.017.153-.027.23l-.009.073-.006.039c-.012.085-.025.169-.041.254-.019.1-.043.207-.068.31s-.049.2-.078.293-.061.192-.095.286c-.01.03-.022.059-.033.089l-1.111-.641a1.671,1.671,0,0,1,0-2.894l1.112-.642.012.033.015.041c.027.075.054.15.078.227s.037.128.055.192l.011.042q.021.077.039.156c.014.056.029.112.041.169s.025.132.036.2c.014.082.027.163.037.245.006.043.014.085.018.129.007.064.011.129.016.194.007.082.011.165.014.248,0,.046.005.093.006.139C1208.967,1010.961,1208.964,1011.027,1208.963,1011.093Z" transform="translate(-1188.032 -1001.973)"/><path class="b" d="M1192,1011a10.973,10.973,0,0,1,4.624-8.952,8.988,8.988,0,0,0,.077,17.962A10.98,10.98,0,0,1,1192,1011Z" transform="translate(-1188.032 -1001.973)"/></g></svg>