<svg xmlns="http://www.w3.org/2000/svg" width="24" height="24"><path d="M22.032 11.3L17.4 10.182l-2.925-2.2A6.267 6.267 0 0011.128 7l-3.03.028a4.689 4.689 0 00-2.324.618l-3.287 1.86h-.019l-1.015-.031a1.472 1.472 0 00-1.41 1.528c0 1.388-.042 1.594-.042 2.286a1.752 1.752 0 001.239 1.719l.883.336h.008l.941.044a2.179 2.179 0 004.344.2l3.414.208h6.655a2.186 2.186 0 004.287-.01h.609a1.692 1.692 0 001.618-1.739v-.089a2.653 2.653 0 00-1.967-2.658zM5.254 16.225a.875.875 0 11.874-.875.876.876 0 01-.87.875zm14.374.02a.875.875 0 11.875-.875.875.875 0 01-.876.875z"/></svg>