<svg xmlns="http://www.w3.org/2000/svg" width="24" height="24"><path d="M15 22l-6-3-6.3 2.7a.494.494 0 01-.2.041.5.5 0 01-.276-.083.5.5 0 01-.225-.417V7l2-.858v12.825l5.065-2.17 6 3 4.935-2.117V4.857l1.3-.558a.5.5 0 01.2-.04.5.5 0 01.276.083.5.5 0 01.223.417V19l-7 3zm-3-6.515l-4.242-4.241A5.962 5.962 0 016 7a5.962 5.962 0 011.757-4.243A5.961 5.961 0 0112 1a5.961 5.961 0 014.243 1.757 6.007 6.007 0 010 8.485l-4.242 4.241zM12 5.5A1.5 1.5 0 0010.5 7 1.5 1.5 0 0012 8.5 1.5 1.5 0 0013.5 7 1.5 1.5 0 0012 5.5z"/></svg>