<svg xmlns="http://www.w3.org/2000/svg" width="24" height="24"><defs><style>.b{fill:#9c9c9c}</style></defs><path d="M18.38 3.949a1.519 1.519 0 11-1.519 1.519 1.519 1.519 0 011.519-1.519z"/><path d="M23.999 6.987a6.825 6.825 0 00-.607-2.887A5.959 5.959 0 0019.898.606a11.915 11.915 0 00-2.887-.607H6.991a6.821 6.821 0 00-2.885.607A5.96 5.96 0 00.612 4.1a11.869 11.869 0 00-.608 2.887v10.021a6.826 6.826 0 00.608 2.885 5.945 5.945 0 003.494 3.494 11.864 11.864 0 002.885.608h10.025a6.828 6.828 0 002.887-.608 5.952 5.952 0 003.494-3.494 11.921 11.921 0 00.607-2.885V6.987zm-2.279 9.872a5.782 5.782 0 01-.455 2.279 4.18 4.18 0 01-2.279 2.279 11.367 11.367 0 01-2.279.455H6.991a5.78 5.78 0 01-2.277-.455 4.18 4.18 0 01-2.279-2.279 11.361 11.361 0 01-.455-2.279V7.138a5.761 5.761 0 01.455-2.279 4.183 4.183 0 012.279-2.277 11.47 11.47 0 012.277-.457h9.721a5.783 5.783 0 012.279.457 4.183 4.183 0 012.279 2.277 11.4 11.4 0 01.455 2.279v4.861a23.494 23.494 0 01-.004 4.861z"/><path d="M11.848 5.772a6.158 6.158 0 00-6.227 6.09v.137a6.228 6.228 0 0012.455 0 6.159 6.159 0 00-6.09-6.228q-.069-.001-.138.001zm0 10.328a4.1 4.1 0 114.1-4.1 4.082 4.082 0 01-4.067 4.1z"/></svg>