<svg xmlns="http://www.w3.org/2000/svg" width="24" height="24"><path d="M13.272 13.745a.824.824 0 00.656-.247l.452-.563a.986.986 0 011.249-.174 12.386 12.386 0 012.145 1.539.857.857 0 01.182 1.121v.009a4.709 4.709 0 01-.932 1.148l-.009.006a1.54 1.54 0 01-1.487.4l-.01-.014a18.073 18.073 0 01-4.79-2.649 15.2 15.2 0 01-4.639-6.772l-.015-.01a1.545 1.545 0 01.4-1.488l.006-.008a4.668 4.668 0 011.148-.932h.009a.856.856 0 011.121.182 12.491 12.491 0 011.545 2.147.986.986 0 01-.173 1.248l-.564.448a.831.831 0 00-.247.657 5.867 5.867 0 003.953 3.952zm4.908-2.616a.3.3 0 01-.3-.3 5.866 5.866 0 00-1.634-4.332A5.623 5.623 0 0012.214 4.9a.303.303 0 010-.607 6.214 6.214 0 014.451 1.767 6.452 6.452 0 011.815 4.763.3.3 0 01-.3.306zm-1.6-.629a.3.3 0 01-.3-.31 3.5 3.5 0 00-.906-2.569 3.768 3.768 0 00-2.645-1.149.304.304 0 11.044-.606 4.406 4.406 0 013.049 1.345 4.134 4.134 0 011.065 2.992.3.3 0 01-.307.297zm-1.558-.522a.3.3 0 01-.3-.289 1.449 1.449 0 00-1.527-1.588.303.303 0 01.032-.606 2.038 2.038 0 012.1 2.164.3.3 0 01-.288.318h-.015zm6.817 3.469c-.6 4.877-4.172 5.185-4.83 5.4a20.06 20.06 0 01-6.152.524s-2.438 2.94-3.2 3.7a.414.414 0 01-.352.145c-.131-.032-.167-.188-.165-.414l.02-4.016C2.403 17.468 2.68 12.5 2.734 9.893s.543-4.736 2-6.17c2.61-2.364 7.987-2.011 7.987-2.011 4.541.02 6.717 1.387 7.222 1.845 1.675 1.434 2.528 4.867 1.9 9.895zm-.648-11.108c-.6-.548-3.007-2.3-8.375-2.322 0 0-6.33-.382-9.416 2.45C1.68 4.185 1.08 6.7 1.014 9.815s-.146 8.958 5.484 10.542h.006v2.416s-.035.979.609 1.179c.779.241 1.236-.5 1.981-1.3a73.9 73.9 0 001.4-1.58 21.786 21.786 0 007.149-.526c.777-.253 5.177-.816 5.893-6.657.738-6.022-.358-9.83-2.338-11.548z" fill-rule="evenodd"/></svg>