<svg xmlns="http://www.w3.org/2000/svg" width="24" height="24"><defs><style>.b{fill:#cecece}</style></defs><path d="M23.966 12.288c0-.1-.013-.207-.019-.31s-.012-.229-.023-.343c0-.026-.005-.052-.008-.077-.006-.05-.01-.1-.017-.15-.013-.1-.033-.205-.05-.308s-.031-.209-.051-.313l-.018-.092-.033-.156c-.023-.1-.052-.194-.078-.291s-.046-.192-.075-.286c-.012-.044-.026-.088-.04-.131s-.028-.094-.044-.141c-.03-.09-.067-.177-.1-.266s-.061-.177-.1-.264a14.255 14.255 0 00-.077-.183c-.016-.036-.029-.072-.045-.107-.036-.081-.079-.158-.117-.237s-.076-.17-.119-.252-.081-.149-.123-.223c-.052-.095-.11-.187-.166-.28s-.1-.169-.151-.252-.092-.136-.139-.205c-.022-.031-.041-.064-.063-.095-.046-.065-.1-.124-.144-.187-.059-.079-.116-.16-.178-.237a6.855 6.855 0 00-.135-.163l-.087-.106c-.054-.063-.112-.121-.168-.182a7.827 7.827 0 00-.216-.23c-.038-.039-.075-.078-.115-.116s-.071-.073-.109-.108c-.06-.058-.124-.111-.186-.166a9.699 9.699 0 00-.265-.23c-.025-.021-.047-.044-.073-.065l-.027-.02-.118-.094a2.6 2.6 0 00-.2-.144c-.1-.072-.2-.143-.3-.211-.04-.028-.079-.059-.12-.085l-.1-.067c-.068-.043-.139-.081-.208-.122-.1-.06-.2-.119-.309-.176-.057-.031-.112-.066-.17-.095l-.08-.04c-.076-.038-.154-.069-.231-.105-.1-.046-.2-.093-.3-.136-.074-.031-.148-.066-.223-.1l-.05-.018c-.084-.032-.171-.057-.256-.086l-.012-.005c-.069-.024-.133-.054-.2-.076-.031-.01-.063-.016-.094-.026-.082-.025-.164-.052-.247-.075s-.177-.041-.266-.063l-.051-.012c-.109-.026-.217-.055-.325-.077-.065-.013-.129-.027-.2-.039l-.063-.012c-.093-.015-.184-.022-.277-.035-.122-.017-.244-.037-.367-.049-.045 0-.09-.01-.135-.013l-.095-.008c-.1-.008-.2-.007-.3-.011-.121 0-.242-.011-.362-.011h-.219c-.1 0-.207.013-.31.019s-.229.012-.343.023l-.078.008-.149.016c-.1.013-.2.033-.307.05s-.211.031-.315.052l-.091.018-.156.033c-.1.022-.194.052-.291.077s-.192.047-.286.075l-.131.041c-.047.014-.094.028-.141.044-.09.03-.177.067-.266.1s-.178.061-.264.1c-.061.024-.122.051-.183.077-.035.015-.072.029-.107.045-.081.035-.158.079-.238.117s-.169.076-.251.119-.149.081-.223.122c-.095.053-.187.111-.28.167s-.17.1-.253.151a5.876 5.876 0 00-.2.138c-.032.022-.065.042-.1.064-.065.046-.124.1-.187.143-.079.06-.16.117-.238.179l-.162.134-.106.087c-.063.055-.121.113-.182.169a9.373 9.373 0 00-.231.216l-.115.114c-.038.039-.073.072-.108.109-.058.061-.111.124-.166.186a8.3 8.3 0 00-.23.267c-.021.025-.044.046-.065.072l-.019.026-.095.119c-.051.064-.1.131-.144.2-.073.1-.143.2-.212.3-.027.04-.058.078-.084.119l-.068.106c-.043.068-.08.139-.121.208-.06.1-.119.2-.176.309-.031.057-.066.112-.1.169l-.04.081c-.038.076-.069.154-.105.231-.046.1-.093.2-.136.3-.031.074-.066.147-.095.222l-.019.051c-.033.085-.057.172-.087.258v.009c-.023.069-.054.133-.076.2-.01.032-.016.064-.026.095-.025.082-.052.164-.075.246s-.041.178-.063.266l-.012.052c-.026.108-.055.216-.077.325-.013.065-.027.129-.039.194l-.012.064c-.016.092-.023.184-.036.277-.017.122-.036.244-.048.366-.005.045-.01.09-.013.135l-.008.1c-.008.1-.007.2-.011.3 0 .121-.011.241-.011.361v.219c0 .105.013.207.019.311s.012.229.023.342l.008.078.016.149c.013.1.033.206.05.309s.031.209.052.313l.018.092.033.156c.022.1.052.194.078.291s.046.192.074.286l.04.131.044.14c.03.091.068.178.1.267s.06.177.095.264l.077.182.045.108c.036.081.08.158.118.237s.076.17.119.252.08.148.121.222c.053.1.112.188.168.281s.1.17.151.252.091.136.138.2c.022.031.042.064.064.1.046.065.1.124.144.187.059.079.115.159.177.237.044.055.089.109.135.163l.087.106c.055.062.113.121.169.182.071.077.141.155.215.23l.114.115.11.109c.061.057.125.111.187.166.087.078.175.155.265.23.025.021.047.044.073.065l.026.019a3.809 3.809 0 00.319.238c.1.073.2.144.3.212.04.028.078.058.119.085l.106.067c.068.043.139.081.208.122.1.06.2.119.309.176.056.03.112.065.169.1l.081.04c.076.038.154.069.231.1.1.046.2.093.3.136.074.031.147.066.222.095l.051.019c.085.033.172.057.258.087h.009c.069.024.133.055.2.077.032.01.064.016.095.025.082.026.164.053.246.076s.178.041.267.063l.05.012c.109.026.217.055.326.077.065.013.129.027.194.039l.064.011c.092.016.184.023.276.036.122.017.244.037.366.049l.137.013.1.008c.1.007.2.007.3.011.121 0 .242.011.362.011h.219c.1 0 .207-.013.311-.019s.229-.012.342-.023l.078-.008.15-.016c.1-.013.2-.034.306-.05s.21-.031.315-.052l.092-.018.156-.033c.1-.023.193-.052.29-.078s.192-.046.287-.074l.131-.041c.047-.015.094-.028.141-.044.09-.03.177-.067.266-.1s.177-.061.263-.1c.062-.024.122-.051.183-.077l.108-.045c.081-.036.158-.079.238-.118s.168-.075.25-.118.149-.081.224-.122c.095-.053.187-.111.28-.167s.169-.1.251-.151.137-.092.2-.139l.1-.063c.065-.046.124-.1.188-.144s.159-.116.236-.178c.056-.044.11-.089.164-.135.035-.029.071-.057.1-.087.063-.054.121-.112.182-.168.078-.071.155-.142.231-.215l.115-.115c.038-.039.073-.072.109-.11.057-.06.11-.124.166-.185.078-.088.155-.176.23-.267.021-.025.044-.046.064-.072l.02-.026c.032-.04.064-.079.095-.12.05-.064.1-.13.143-.2.073-.1.143-.2.212-.3.027-.04.058-.079.085-.119s.045-.071.067-.106c.043-.068.081-.139.121-.208.061-.1.12-.2.176-.309.031-.057.066-.112.1-.169l.04-.081c.037-.076.069-.154.1-.231.047-.1.093-.2.136-.3.032-.074.067-.147.1-.222l.019-.052c.032-.083.056-.169.086-.254v-.012c.024-.069.054-.134.077-.2.01-.032.015-.064.025-.1.026-.082.053-.163.076-.246v-.012l.006-.021.005-.021c.019-.069.03-.14.047-.209l.013-.054c.026-.108.055-.217.077-.325.013-.065.027-.13.038-.2 0-.021.009-.042.012-.063.016-.093.023-.184.036-.277.017-.122.037-.244.049-.366 0-.046.009-.091.013-.137 0-.031.006-.062.008-.094.007-.1.007-.2.011-.3 0-.121.011-.241.011-.362v-.092a.336.336 0 00.01-.114zm-8-5.671c.036.007.073.011.11.018a7.95 7.95 0 01.603.147 5.984 5.984 0 01.568.201l.115.05.144.064.025.012c.082.039.163.079.243.121.047.025.092.051.138.077.063.036.127.072.189.111s.117.072.175.11c.034.022.068.047.1.07.084.059.168.12.25.183l.12.094c.035.028.07.059.105.088.079.068.156.137.231.208l.1.094c.033.032.07.073.1.109l.05.053c.044.047.086.093.128.141s.075.084.111.127l.008.01-1.113.643a1.671 1.671 0 01-2.506-1.447zm-6.618 8l-.013-.033-.014-.041c-.027-.075-.054-.15-.078-.227s-.038-.129-.055-.194l-.012-.041-.039-.155c-.013-.056-.028-.112-.04-.168s-.025-.134-.037-.2-.026-.161-.037-.242c-.006-.042-.013-.085-.018-.128-.007-.065-.011-.131-.016-.2a6.812 6.812 0 01-.014-.247c0-.047-.005-.093-.005-.139V12.36c0-.054 0-.108.006-.161s.006-.126.012-.189.017-.156.027-.235l.009-.068.005-.04a5.504 5.504 0 01.188-.856c.029-.092.061-.192.094-.287l.034-.088 1.111.641a1.672 1.672 0 010 2.894zm4.618 3.82c-.037-.006-.073-.01-.109-.017a8.47 8.47 0 01-.604-.147c-.097-.029-.192-.061-.286-.1s-.19-.068-.282-.106l-.119-.052-.135-.06-.032-.015a6.063 6.063 0 01-.242-.121c-.046-.024-.09-.05-.135-.075-.065-.037-.13-.074-.193-.113s-.116-.071-.173-.109c-.034-.022-.067-.046-.1-.069a8.574 8.574 0 01-.253-.185l-.118-.093a1.329 1.329 0 01-.1-.088 5.81 5.81 0 01-.232-.208l-.1-.094c-.033-.032-.071-.073-.106-.11l-.049-.052a5.7 5.7 0 01-.129-.142l-.11-.126-.008-.011 1.113-.642a1.671 1.671 0 012.506 1.447zm0-10.535a1.671 1.671 0 01-2.506 1.447l-1.113-.643.055-.065a5.81 5.81 0 01.208-.232c.032-.032.062-.066.094-.1s.073-.071.109-.106l.053-.05.141-.128c.042-.037.084-.074.126-.109s.1-.081.154-.121l.075-.059.06-.045a6.38 6.38 0 01.687-.435c.08-.042.19-.1.286-.145.08-.038.159-.075.24-.109.047-.02.094-.037.141-.055s.089-.035.134-.051l.042-.015c.075-.027.149-.054.226-.078s.127-.037.19-.054l.044-.012.156-.04c.056-.013.112-.028.169-.04s.132-.025.2-.036l.031-.005zm1.494 5.5a1 1 0 11.375-1.364 1 1 0 01-.371 1.358zm4.068 3.019a6.482 6.482 0 01-.206.23l-.094.1c-.032.034-.075.073-.112.109l-.051.048c-.046.043-.093.086-.14.127l-.127.11c-.043.036-.1.082-.155.123l-.075.058-.057.042a5.308 5.308 0 01-.454.303 5.146 5.146 0 01-.521.279 5.674 5.674 0 01-.239.109l-.135.053c-.048.018-.095.037-.143.054l-.039.014c-.075.027-.15.054-.226.078s-.126.036-.189.054l-.048.013q-.078.021-.156.039c-.055.013-.11.028-.166.04s-.133.025-.2.036l-.03.005v-1.289a1.671 1.671 0 012.506-1.447l1.113.642zm1.431-3.766v.041q0 .081-.006.162c0 .063-.006.126-.011.189s-.017.153-.027.23l-.009.073-.006.039a5.589 5.589 0 01-.282 1.143c-.01.03-.022.059-.033.089l-1.111-.641a1.671 1.671 0 010-2.894l1.112-.642.012.033.015.041c.027.075.054.15.078.227s.037.128.055.192l.011.042q.021.077.039.156c.014.056.029.112.041.169s.025.132.036.2c.014.082.027.163.037.245.006.043.014.085.018.129.007.064.011.129.016.194.007.082.011.165.014.248 0 .046.005.093.006.139.003.058 0 .124-.001.19z"/><path d="M4 12.556a10.973 10.973 0 014.624-8.952 8.988 8.988 0 00.077 17.962A10.98 10.98 0 014 12.556z"/></svg>