<svg xmlns="http://www.w3.org/2000/svg" width="24" height="24"><path d="M22.069 11.817c0-.1-.013-.207-.019-.31s-.012-.229-.023-.343l-.008-.077-.016-.149c-.013-.1-.034-.206-.05-.309s-.031-.209-.052-.313l-.018-.092-.033-.156c-.022-.1-.052-.194-.078-.291s-.046-.192-.074-.286l-.041-.131c-.014-.044-.028-.094-.044-.141-.03-.09-.067-.177-.1-.266s-.061-.177-.1-.264c-.024-.061-.051-.122-.077-.183-.015-.035-.029-.072-.045-.107-.035-.081-.079-.158-.117-.237s-.076-.17-.119-.252-.081-.149-.122-.223c-.053-.1-.111-.187-.167-.28s-.1-.169-.151-.252-.092-.136-.138-.2c-.022-.032-.042-.065-.064-.1-.046-.065-.1-.124-.144-.187-.059-.079-.116-.16-.177-.237l-.135-.163-.087-.106c-.055-.063-.113-.121-.169-.182-.071-.077-.141-.155-.215-.23l-.115-.116c-.039-.038-.072-.073-.109-.108-.061-.058-.125-.111-.187-.166a9.699 9.699 0 00-.265-.23c-.025-.021-.047-.044-.073-.065l-.027-.02-.118-.094a2.6 2.6 0 00-.2-.144c-.1-.072-.2-.142-.3-.211-.041-.028-.08-.059-.121-.085l-.1-.067c-.068-.043-.139-.081-.208-.122-.1-.06-.2-.119-.308-.176-.057-.031-.113-.066-.17-.1l-.081-.04c-.076-.038-.154-.069-.231-.1-.1-.046-.2-.093-.3-.136-.075-.031-.149-.066-.224-.1l-.05-.018c-.084-.032-.171-.057-.256-.086l-.012-.005c-.069-.024-.133-.054-.2-.076-.032-.01-.063-.016-.1-.025-.082-.026-.164-.053-.246-.076s-.178-.041-.266-.063l-.052-.012c-.108-.026-.216-.055-.325-.077-.065-.013-.129-.027-.194-.039l-.064-.012c-.092-.015-.184-.022-.277-.035-.122-.017-.244-.037-.366-.049-.046 0-.09-.01-.136-.013l-.1-.008c-.1-.008-.2-.007-.3-.011-.121 0-.241-.011-.361-.011h-.219c-.1 0-.207.013-.311.019l-.131.009.033-.007a8.994 8.994 0 10-1.5 17.861c.191 0 .378-.014.566-.028l.064.011c.092.016.184.023.276.036.123.017.245.037.367.049l.136.013.1.008c.1.007.2.007.3.011.121 0 .242.011.363.011h.219c.1 0 .206-.013.31-.019s.229-.012.343-.023l.077-.008.15-.016c.1-.013.2-.034.306-.05s.211-.031.315-.052l.092-.018.157-.033c.1-.022.193-.052.289-.077s.192-.047.287-.075l.131-.041c.047-.014.094-.028.141-.044.09-.03.177-.067.266-.1s.177-.061.264-.1c.061-.024.121-.051.182-.077.036-.015.073-.029.108-.045.081-.036.159-.079.238-.118s.169-.075.251-.118.149-.081.223-.122c.095-.053.187-.111.28-.167s.17-.1.251-.151.137-.092.206-.139c.031-.021.064-.041.1-.063.064-.046.124-.1.187-.144.079-.059.16-.116.237-.178.055-.044.109-.089.163-.135l.106-.086c.063-.055.121-.113.182-.169.077-.071.155-.142.23-.215l.115-.115c.038-.039.074-.072.109-.11.058-.06.11-.124.166-.185.078-.088.155-.176.23-.267.021-.025.044-.046.065-.072l.019-.026a2.333 2.333 0 00.242-.319c.073-.1.144-.2.212-.3.028-.04.059-.079.085-.119l.068-.106c.042-.068.08-.139.121-.208.06-.1.119-.2.176-.309.031-.057.066-.112.095-.169l.04-.081c.038-.076.069-.154.1-.231.046-.1.093-.2.136-.3.031-.074.066-.147.095-.222l.019-.052c.033-.083.057-.169.086-.254v-.012c.024-.069.055-.134.077-.2.01-.032.016-.064.026-.095.025-.083.052-.164.075-.247v-.012l.007-.021v-.021c.019-.069.03-.14.047-.209l.013-.053c.026-.109.055-.217.077-.326l.039-.194.012-.064c.015-.093.022-.184.035-.277.017-.122.037-.244.049-.366.005-.046.01-.091.013-.137 0-.031.006-.062.008-.094.007-.1.007-.2.011-.3 0-.121.011-.241.011-.362v-.092a.356.356 0 00.011-.12zm-8-5.67c.037.006.073.01.11.017a8.425 8.425 0 01.603.147 6.379 6.379 0 01.568.201l.115.05c.049.021.1.042.144.065l.025.011c.083.039.164.079.244.121l.137.077c.064.036.127.072.19.111s.117.072.174.11l.1.07c.084.059.168.12.25.183.04.031.081.062.12.094s.07.059.1.088c.079.068.156.137.231.208l.1.094c.033.032.071.073.106.109l.05.053c.043.047.086.093.128.141l.11.127.008.01-1.113.643a1.671 1.671 0 01-2.506-1.447zm-5.506 7.356l-1.112.642-.012-.033-.015-.041c-.027-.075-.054-.15-.078-.227s-.037-.129-.055-.194l-.011-.041c-.014-.051-.027-.1-.039-.155s-.029-.112-.041-.168-.025-.134-.036-.2-.027-.162-.038-.243l-.017-.128c-.007-.065-.011-.131-.016-.2-.007-.082-.011-.165-.015-.247 0-.047 0-.093-.005-.139V11.887c0-.054 0-.107.007-.161s.006-.126.011-.189c.007-.078.018-.156.028-.235 0-.022.005-.045.008-.068l.005-.04c.013-.084.025-.168.041-.252a8.47 8.47 0 01.147-.604c.029-.092.061-.192.095-.287.01-.03.022-.059.033-.088l1.111.641a1.671 1.671 0 01.008 2.899zm1 1.732a1.671 1.671 0 012.506 1.447v1.283c-.036-.006-.073-.01-.109-.017a8.47 8.47 0 01-.604-.147 6.379 6.379 0 01-.567-.201c-.04-.016-.08-.035-.119-.052l-.136-.06-.032-.015a7.795 7.795 0 01-.242-.121l-.135-.075a5.389 5.389 0 01-.366-.222c-.034-.022-.067-.046-.1-.069a6.55 6.55 0 01-.253-.185c-.04-.031-.08-.061-.119-.093s-.069-.058-.1-.088a5.81 5.81 0 01-.232-.208l-.1-.094c-.033-.032-.071-.073-.106-.109l-.049-.053c-.044-.047-.087-.094-.129-.142s-.074-.083-.11-.126l-.008-.011zm2.506-7.8a1.671 1.671 0 01-2.506 1.447L8.45 8.239l.056-.065c.067-.079.137-.156.208-.232l.093-.1.109-.106.053-.05.142-.128c.048-.042.083-.074.126-.109a5.55 5.55 0 01.229-.18l.059-.045a5.732 5.732 0 01.687-.435c.1-.052.19-.1.287-.145.079-.038.158-.075.239-.109l.142-.055a3.04 3.04 0 01.133-.051l.042-.015c.075-.027.15-.054.226-.078s.127-.037.191-.054l.044-.012.155-.04c.056-.013.112-.028.169-.04s.132-.025.2-.036l.03-.005zm1.495 5.495a1 1 0 11.374-1.364 1 1 0 01-.37 1.359zm4.068 3.019a7.668 7.668 0 01-.207.23l-.093.1a5.811 5.811 0 01-.113.109l-.05.048c-.047.043-.093.086-.141.128l-.126.109a3.39 3.39 0 01-.156.123l-.075.058-.057.043c-.059.043-.118.086-.179.126a5.86 5.86 0 01-.796.455 5.674 5.674 0 01-.239.109c-.045.019-.09.035-.135.053l-.142.054-.04.014c-.075.027-.15.054-.226.078s-.125.036-.189.054l-.048.013c-.051.014-.1.027-.155.039s-.111.028-.166.04-.133.025-.2.036l-.03.005v-1.289a1.671 1.671 0 012.506-1.447l1.113.642zm1.43-3.766v.041c0 .054 0 .108-.007.162s-.005.126-.011.189-.017.153-.027.23l-.009.073-.005.039c-.013.085-.025.17-.041.254a8.425 8.425 0 01-.147.603 9.514 9.514 0 01-.094.286l-.034.089-1.111-.641a1.671 1.671 0 010-2.894l1.112-.642.012.033.015.041c.027.075.054.151.078.227s.037.128.055.192l.011.042c.014.052.027.1.04.156s.028.112.04.169.025.132.036.2c.015.082.027.163.038.245.005.043.013.085.018.129.007.064.011.129.016.194.006.082.011.165.014.248 0 .047.005.093.005.139.004.059.001.125 0 .191z"/></svg>