<svg xmlns="http://www.w3.org/2000/svg" width="24" height="24"><path d="M23.989 11.69a11.8 11.8 0 01-17.47 10.236L0 24l2.126-6.273a11.572 11.572 0 01-1.69-6.036 11.777 11.777 0 0123.554 0zM12.211 1.862a9.876 9.876 0 00-9.9 9.829 9.727 9.727 0 001.886 5.763l-1.237 3.65 3.8-1.21a9.853 9.853 0 105.451-18.032zm5.947 12.521c-.073-.119-.265-.191-.553-.335s-1.709-.837-1.972-.932-.458-.144-.65.143-.745.932-.914 1.123-.337.216-.626.072a7.9 7.9 0 01-2.321-1.422 8.625 8.625 0 01-1.606-1.984c-.168-.286-.018-.441.127-.584s.289-.335.433-.5a1.932 1.932 0 00.288-.478.523.523 0 00-.024-.5c-.072-.143-.65-1.553-.89-2.127s-.481-.478-.649-.478-.361-.024-.553-.024a1.064 1.064 0 00-.77.358 3.2 3.2 0 00-1.01 2.39 5.547 5.547 0 001.179 2.964 11.8 11.8 0 004.931 4.326c2.935 1.147 2.935.765 3.465.717a2.917 2.917 0 001.949-1.362 2.385 2.385 0 00.167-1.367z"/></svg>