<svg xmlns="http://www.w3.org/2000/svg" width="80" height="80" viewBox="0 0 80 80"><g transform="translate(-1485.875 1.861)"><g transform="translate(1485.875 -1.861)"><rect class="a" width="80" height="80"/><path  fill="#9c9c9c;" class="b" d="M1558.445,76.111h-1.778A6.673,6.673,0,0,0,1550,69.444V67.667A6.673,6.673,0,0,0,1556.667,61h1.778a6.673,6.673,0,0,0,6.667,6.667v1.778A6.673,6.673,0,0,0,1558.445,76.111Zm-4.676-7.556a3.787,3.787,0,0,0,7.574,0,3.787,3.787,0,0,0-7.574,0Z" transform="translate(-1493 -5.123)"/><rect class="b" width="1.778" height="2.222" transform="translate(63.667 51.654)"/><rect class="b" width="1.778" height="2.222" transform="translate(63.667 72.988)"/><rect class="b" width="2.222" height="1.778" transform="translate(74.111 62.543)"/><rect class="b" width="2.222" height="1.778" transform="translate(52.778 62.543)"/><path  fill="#9c9c9c;" class="b" d="M1504.279,83.089a.935.935,0,0,1-.631-.258.868.868,0,0,1-.107-.142.493.493,0,0,1-.08-.151.514.514,0,0,1-.053-.169.992.992,0,0,1-.018-.169.919.919,0,0,1,.258-.631.931.931,0,0,1,1.262,0,.845.845,0,0,1,.187.293.906.906,0,0,1,.071.338.934.934,0,0,1-.258.631c-.044.036-.089.071-.143.107a.479.479,0,0,1-.15.08.545.545,0,0,1-.169.053A1.088,1.088,0,0,1,1504.279,83.089Z" transform="translate(-1487.821 -7.382)"/><path  fill="#9c9c9c;" class="b" d="M1495.429,10.569a1.081,1.081,0,0,1-.169-.018c-.062-.018-.116-.036-.169-.053s-.106-.053-.151-.08a.914.914,0,0,1-.142-.116.891.891,0,0,1,0-1.253.922.922,0,0,1,1.262,0,.786.786,0,0,1,.107.133.515.515,0,0,1,.08.151.627.627,0,0,1,.053.169.553.553,0,0,1,.018.169.883.883,0,0,1-.258.631A.9.9,0,0,1,1495.429,10.569Z" transform="translate(-1486.838 0.677)"/></g><g transform="translate(1492.519 4.548)"><path  fill="#9c9c9c;" class="b" d="M1527.039,72.729a33.654,33.654,0,1,1,31.92-22.884.889.889,0,1,1-1.684-.57,31.877,31.877,0,1,0-20.745,20.242.889.889,0,0,1,.528,1.7A33.681,33.681,0,0,1,1527.039,72.729Z" transform="translate(-1493.349 -5.349)"/><g transform="translate(11.601 11.719)"><path  fill="#9c9c9c;" class="b" d="M1522.131,34.594l-.045,0-13.309-.671a.889.889,0,0,1-.787-1.2,22.057,22.057,0,0,1,17.634-14.081.888.888,0,0,1,.982,1.1l-3.613,14.186A.888.888,0,0,1,1522.131,34.594Zm-12.009-2.385,11.328.572,3.1-12.155A20.271,20.271,0,0,0,1510.122,32.209Z" transform="translate(-1506.57 -18.543)"/><path  fill="#9c9c9c;" class="b" d="M1537.285,34.583a.889.889,0,0,1-.861-.669l-3.636-14.273a.888.888,0,0,1,.954-1.1,21.96,21.96,0,0,1,18.332,14.137.887.887,0,0,1-.785,1.2l-13.958.7Zm-2.449-14.1,3.13,12.287,11.972-.6A20.5,20.5,0,0,0,1534.837,20.482Z" transform="translate(-1509.329 -18.533)"/><path  fill="#9c9c9c;" class="b" d="M1546.128,59.82a.9.9,0,0,1-.205-.024.889.889,0,0,1-.615-.525l-4.633-11.2a.888.888,0,0,1,.373-1.108l11.89-6.944a.889.889,0,0,1,1.333.68c.071.725.108,1.458.108,2.179a22.081,22.081,0,0,1-7.669,16.726A.892.892,0,0,1,1546.128,59.82Zm-3.515-11.713,3.851,9.309a20.293,20.293,0,0,0,6.137-14.539c0-.2,0-.4-.009-.6Z" transform="translate(-1510.201 -20.906)"/><path  fill="#9c9c9c;" class="b" d="M1514.166,59.44a.888.888,0,0,1-.6-.234,22.149,22.149,0,0,1-7.165-16.283c0-.556.027-1.142.078-1.794a.889.889,0,0,1,1.334-.7l11.258,6.575a.888.888,0,0,1,.373,1.108l-4.456,10.774a.888.888,0,0,1-.628.528A.9.9,0,0,1,1514.166,59.44Zm-5.987-16.733c0,.073,0,.145,0,.217A20.375,20.375,0,0,0,1513.846,57l3.659-8.844Z" transform="translate(-1506.4 -20.953)"/><path  fill="#9c9c9c;" class="b" d="M1530,66.612a21.9,21.9,0,0,1-9.462-2.126.89.89,0,0,1-.222-1.456l8.751-8.083a.89.89,0,0,1,1.207,0l8.967,8.283A.89.89,0,0,1,1539,64.7,21.909,21.909,0,0,1,1530,66.612Zm-7.477-3.2a20.419,20.419,0,0,0,14.485.176l-7.338-6.778Z" transform="translate(-1507.915 -22.552)"/></g><path  fill="#9c9c9c;" class="b" d="M1530.726,46.917a4.191,4.191,0,1,1,4.191-4.191A4.2,4.2,0,0,1,1530.726,46.917Zm0-6.6a2.413,2.413,0,1,0,2.413,2.413A2.416,2.416,0,0,0,1530.726,40.313Z" transform="translate(-1497.036 -9.036)"/><circle class="b" cx="1.541" cy="1.541" r="1.541" transform="translate(32.149 23.343)"/><circle class="b" cx="1.541" cy="1.541" r="1.541" transform="translate(41.835 30.388)"/><circle class="b" cx="1.541" cy="1.541" r="1.541" transform="translate(37.432 40.954)"/><circle class="b" cx="1.541" cy="1.541" r="1.541" transform="translate(22.462 30.388)"/><circle class="b" cx="1.541" cy="1.541" r="1.541" transform="translate(25.985 41.835)"/><path  fill="#9c9c9c;" class="b" d="M1527.868,66.922a27.053,27.053,0,1,1,0-54.107.889.889,0,1,1,0,1.778,25.276,25.276,0,1,0,0,50.551.889.889,0,1,1,0,1.778Z" transform="translate(-1494.179 -6.179)"/><path  fill="#9c9c9c;" class="b" d="M1552.668,26.616h0a.893.893,0,0,1,.284-1.227h0a.9.9,0,0,1,1.227.293h0a.894.894,0,0,1-.293,1.227h0a.871.871,0,0,1-.463.133h0A.877.877,0,0,1,1552.668,26.616Zm-2.551-3.44a.889.889,0,0,1,.079-1.262h0a.9.9,0,0,1,1.254.08h0a.906.906,0,0,1-.08,1.262h0a.921.921,0,0,1-.587.213h0A.875.875,0,0,1,1550.117,23.176Zm-3.093-2.969a.89.89,0,0,1-.134-1.253h0a.879.879,0,0,1,1.245-.133h0a.891.891,0,0,1,.133,1.253h0a.909.909,0,0,1-.693.329h0A.854.854,0,0,1,1547.023,20.207Zm-3.556-2.409h0a.888.888,0,0,1-.338-1.209h0a.886.886,0,0,1,1.209-.338h0a.885.885,0,0,1,.337,1.209h0a.891.891,0,0,1-.773.453h0A.838.838,0,0,1,1543.468,17.8Zm-3.9-1.769h0a.871.871,0,0,1-.541-1.129h0a.878.878,0,0,1,1.129-.542h0a.872.872,0,0,1,.542,1.129h0a.887.887,0,0,1-.835.6h0A.859.859,0,0,1,1539.565,16.029Zm-4.15-1.076a.89.89,0,0,1-.729-1.031h0a.88.88,0,0,1,1.022-.72h0a.886.886,0,0,1,.729,1.022h0a.887.887,0,0,1-.88.738h0A.759.759,0,0,1,1535.415,14.953ZM1530.25,13.7a.884.884,0,0,1,.889-.88h0a.884.884,0,0,1,.889.88h0a.894.894,0,0,1-.889.9h0A.893.893,0,0,1,1530.25,13.7Z" transform="translate(-1497.449 -6.179)"/></g></g></svg>