<svg xmlns="http://www.w3.org/2000/svg" width="80" height="80" viewBox="0 0 80 80"><defs><style>.a,.b,.c{fill:#9c9c9c;}.a{opacity:0;}.c{stroke:#0076c1;stroke-linecap:round;stroke-linejoin:round;stroke-width:2px;stroke-dasharray:0 5;}</style></defs><g transform="translate(-1748.729 5.177)"><rect class="a" width="80" height="80" transform="translate(1748.729 -5.177)"/><path class="b" d="M1790.147,71.839a.885.885,0,0,1-.46-.129c-1.152-.7-28.2-17.3-28.2-33.485V10.457a.889.889,0,0,1,.889-.889c.572,0,1.185.024,1.845.05,5.262.2,13.218.515,25.317-10.721a.89.89,0,0,1,1.21,0c11.991,11.137,18.413,10.93,24.617,10.726.85-.028,1.693-.055,2.545-.055a.889.889,0,0,1,.889.889V38.224c0,6.844-4.771,14.574-14.179,22.976a108.424,108.424,0,0,1-14.015,10.509A.885.885,0,0,1,1790.147,71.839Zm-26.878-60.476V38.224c0,14.083,23.284,29.4,26.878,31.676,3.595-2.279,26.878-17.594,26.878-31.676V11.355c-.533.011-1.064.028-1.6.045-6.458.209-13.135.428-25.28-10.644-12.315,11.172-20.855,10.839-25.991,10.638C1763.851,11.383,1763.555,11.371,1763.269,11.362Z" transform="translate(-1.418 -0.426)"/><path class="b" d="M1790.736,66.876a.877.877,0,0,1-.481-.142c-.958-.617-23.465-15.276-23.465-28.754V14.969a.889.889,0,0,1,.889-.889c.475,0,.988.02,1.539.042,4.34.165,10.911.426,20.915-8.844a.888.888,0,1,1,1.208,1.3c-10.542,9.771-17.832,9.488-22.193,9.316l-.58-.021v22.1c0,12.512,22.424,27.114,22.65,27.26a.888.888,0,0,1-.482,1.636Z" transform="translate(-2.007 -1.135)"/><g transform="translate(1775.04 21.134)"><path class="b" d="M1792.018,51.8a13.689,13.689,0,1,1,13.689-13.689A13.7,13.7,0,0,1,1792.018,51.8Zm0-25.6a11.911,11.911,0,1,0,11.911,11.911A11.925,11.925,0,0,0,1792.018,26.2Z" transform="translate(-1778.329 -24.423)"/><path class="b" d="M1791.718,44.845a.886.886,0,0,1-.628-.26l-4-4a.889.889,0,0,1,1.257-1.257l3.375,3.374,7.9-7.822a.889.889,0,1,1,1.25,1.264l-8.533,8.444A.884.884,0,0,1,1791.718,44.845Z" transform="translate(-1779.273 -25.556)"/></g><path class="b" d="M1793.619,73.044a.889.889,0,0,1-.482-1.636,92.252,92.252,0,0,0,13.092-10.6.889.889,0,1,1,1.251,1.262A94.007,94.007,0,0,1,1794.1,72.9.876.876,0,0,1,1793.619,73.044Z" transform="translate(-4.889 -7.303)"/><path class="b" d="M1807.877,60.23a.9.9,0,0,1,0-1.262h.009a.894.894,0,0,1,1.253.009h0a.877.877,0,0,1-.01,1.253h.01a.887.887,0,0,1-.631.258h0A.87.87,0,0,1,1807.877,60.23Zm3.093-3.2a.88.88,0,0,1-.089-1.253h0a.876.876,0,0,1,1.244-.089h0a.888.888,0,0,1,.1,1.253h0a.9.9,0,0,1-.676.311h0A.86.86,0,0,1,1810.971,57.03Zm2.809-3.44a.884.884,0,0,1-.213-1.236h0a.893.893,0,0,1,1.235-.222h0a.9.9,0,0,1,.222,1.244h0a.915.915,0,0,1-.729.373h0A.926.926,0,0,1,1813.78,53.59Zm2.4-3.742a.889.889,0,0,1-.409-1.191h0a.885.885,0,0,1,1.191-.4h0a.889.889,0,0,1,.409,1.182h0a.888.888,0,0,1-.8.5h0A.867.867,0,0,1,1816.18,49.847Zm1.688-4.107a.884.884,0,0,1-.684-1.049h0a.878.878,0,0,1,1.049-.684h0a.878.878,0,0,1,.685,1.049h0a.876.876,0,0,1-.863.7h0A.673.673,0,0,1,1817.868,45.741Z" transform="translate(-6.543 -5.463)"/><path class="c" d="M1767.79,42.1" transform="translate(-2.118 -5.253)"/><path class="b" d="M1801.429,12.672a.894.894,0,0,1-.442-.117,44.444,44.444,0,0,1-7.913-5.973.889.889,0,0,1,1.209-1.3,42.654,42.654,0,0,0,7.589,5.734.889.889,0,0,1-.444,1.66Z" transform="translate(-4.896 -1.135)"/></g></svg>