<svg xmlns="http://www.w3.org/2000/svg" width="80" height="80" viewBox="0 0 80 80"><defs><style>.a,.b{fill:#9c9c9c;}.a{opacity:0;}</style></defs><g transform="translate(-1618 2)"><rect class="a" width="80" height="80" transform="translate(1618 -2)"/><path class="b" d="M1684.912,71.421H1634.7a5.055,5.055,0,0,1-5.049-5.05V57.139a.889.889,0,1,1,1.778,0v9.232a3.275,3.275,0,0,0,3.271,3.272h50.21a3.275,3.275,0,0,0,3.271-3.272V32.852a3.272,3.272,0,0,0-3.268-3.268h-30.83a.889.889,0,0,1,0-1.778h30.83a5.052,5.052,0,0,1,5.046,5.046V66.371A5.055,5.055,0,0,1,1684.912,71.421Z" transform="translate(-1.295 -3.312)"/><path class="b" d="M1630.542,36.178a.889.889,0,0,1-.889-.889V23.3a.889.889,0,1,1,1.778,0V35.289A.889.889,0,0,1,1630.542,36.178Z" transform="translate(-1.295 -2.713)"/><path class="b" d="M1629.649,52.6a.886.886,0,0,1,.889-.889h0a.885.885,0,0,1,.889.889h0a.891.891,0,0,1-.889.889h0A.892.892,0,0,1,1629.649,52.6Zm0-4.444a.886.886,0,0,1,.889-.889h0a.885.885,0,0,1,.889.889h0a.891.891,0,0,1-.889.889h0A.892.892,0,0,1,1629.649,48.153Zm0-4.444a.892.892,0,0,1,.889-.889h0a.891.891,0,0,1,.889.889h0a.891.891,0,0,1-.889.889h0A.892.892,0,0,1,1629.649,43.709Z" transform="translate(-1.294 -4.98)"/><path class="b" d="M1687.722,28.034a.889.889,0,0,1-.889-.889v-7.6a3.274,3.274,0,0,0-3.271-3.271h-1.175a.889.889,0,1,1,0-1.778h1.175a5.054,5.054,0,0,1,5.049,5.049v7.6A.889.889,0,0,1,1687.722,28.034Z" transform="translate(-7.055 -1.833)"/><path class="b" d="M1661.048,28.034h-24.781a6.767,6.767,0,0,1,0-13.534h1.626a.889.889,0,0,1,0,1.778h-1.626a4.989,4.989,0,0,0,0,9.979h24.781a.889.889,0,0,1,0,1.778Z" transform="translate(-1.278 -1.833)"/><path class="b" d="M1693.265,60.022h-17.1a8.78,8.78,0,0,1,0-17.56h17.1a.889.889,0,1,1,0,1.778h-17.1a7,7,0,0,0,0,14h17.1a.889.889,0,1,1,0,1.778Z" transform="translate(-5.487 -4.94)"/><path class="b" d="M1663.5,28.726" transform="translate(-5.056 -3.414)"/><path class="b" d="M1673.611,26.458a.889.889,0,0,1-.889-.889V6.32a1.044,1.044,0,0,0-1.043-1.042H1645.32a1.043,1.043,0,0,0-1.042,1.042v19.25a.889.889,0,0,1-1.778,0V6.32a2.823,2.823,0,0,1,2.82-2.82h26.359a2.823,2.823,0,0,1,2.821,2.82v19.25A.889.889,0,0,1,1673.611,26.458Z" transform="translate(-2.722 -0.611)"/><path class="b" d="M1667.21,28.5h-15.591a.89.89,0,0,1-.867-1.086,8.883,8.883,0,0,1,17.324,0,.889.889,0,0,1-.867,1.086Zm-14.386-1.778H1666a7.108,7.108,0,0,0-13.18,0Z" transform="translate(-3.636 -2.5)"/><path class="b" d="M1660.889,15.207a.888.888,0,0,1-.889-.889V10.195a.889.889,0,0,1,1.778,0v4.124A.888.888,0,0,1,1660.889,15.207Z" transform="translate(-4.667 -1.256)"/><circle class="b" cx="2.079" cy="2.079" r="2.079" transform="translate(1668.81 44.222)"/><path class="b" d="M1684.051,70.637h-45.5a.889.889,0,1,1,0-1.778h45.5a.439.439,0,0,0,.438-.438V66.212a.889.889,0,0,1,1.778,0v2.209A2.218,2.218,0,0,1,1684.051,70.637Z" transform="translate(-2.184 -7.48)"/><path class="b" d="M1685.338,38.708a.889.889,0,0,1-.889-.889V35.594a.44.44,0,0,0-.438-.439H1638.19a.889.889,0,1,1,0-1.778h45.821a2.219,2.219,0,0,1,2.216,2.217v2.225A.889.889,0,0,1,1685.338,38.708Z" transform="translate(-2.145 -3.931)"/></g></svg>