<svg xmlns="http://www.w3.org/2000/svg" xmlns:xlink="http://www.w3.org/1999/xlink" width="44.4" height="44.4" viewBox="0 0 44.4 44.4"><defs><style>.a{fill:none;}.b{fill:#fff;}.c{fill:url(#a);}</style><linearGradient id="a" x1="-0.055" y1="0.677" x2="1.514" y2="-0.104" gradientUnits="objectBoundingBox"><stop offset="0" stop-color="#fff"/><stop offset="1" stop-color="#fff" stop-opacity="0"/></linearGradient></defs><path class="a" d="M0,0H44.4V44.4H0Z"/><path class="b" d="M4.85,2h29.6A1.85,1.85,0,0,1,36.3,3.85v33.3A1.85,1.85,0,0,1,34.45,39H4.85A1.85,1.85,0,0,1,3,37.15V3.85A1.85,1.85,0,0,1,4.85,2ZM6.7,5.7V35.3H32.6V5.7Zm3.7,14.8h3.7v3.7H10.4Zm0,7.4h3.7v3.7H10.4Zm7.4-7.4h3.7v3.7H17.8Zm0,7.4h3.7v3.7H17.8Zm7.4-7.4h3.7V31.6H25.2Z" transform="translate(2.55 1.7)"/><path class="c" d="M7,6H25.5v7.4H7Z" transform="translate(5.95 5.1)"/></svg>