<svg xmlns="http://www.w3.org/2000/svg" width="88" height="88" viewBox="0 0 88 88"><defs><style>.a,.b{fill:#9c9c9c;}.a{opacity:0;}</style></defs><g transform="translate(-408 -582)"><rect class="a" width="88" height="88" transform="translate(408 582)"/><g transform="translate(463.787 635.64)"><g transform="translate(0 0)"><path class="b" d="M86.813,89.527A12.913,12.913,0,1,1,99.727,76.613,12.946,12.946,0,0,1,86.813,89.527Zm0-23.66A10.747,10.747,0,1,0,97.56,76.613,10.745,10.745,0,0,0,86.813,65.867Z" transform="translate(-73.9 -63.7)"/><path class="b" d="M93.74,80.153h-5.2a1.054,1.054,0,0,1-1.04-1.04V71.14a1.054,1.054,0,0,1,1.04-1.04,1.118,1.118,0,0,1,1.04,1.04v6.847h4.073a1.088,1.088,0,0,1,.087,2.167Z" transform="translate(-75.713 -64.553)"/></g></g><g transform="translate(414.733 596.467)"><path class="b" d="M80.393,22.4h-2.86a1.054,1.054,0,0,0-1.04,1.04,1.118,1.118,0,0,0,1.04,1.04h2.86a3.292,3.292,0,0,1,3.293,3.293V30.98H19.553V27.773a3.292,3.292,0,0,1,3.293-3.293H33.16a1.054,1.054,0,0,0,1.04-1.04,1.135,1.135,0,0,0-1.127-1.04h-2.08a2.776,2.776,0,0,1,2.513-1.647,2.687,2.687,0,0,1,0,5.373,1.054,1.054,0,0,0-1.04,1.04,1.118,1.118,0,0,0,1.04,1.04,4.853,4.853,0,0,0,0-9.707,4.921,4.921,0,0,0-4.767,3.813H22.76a5.437,5.437,0,0,0-5.46,5.46v44.46a5.437,5.437,0,0,0,5.46,5.46H48.24a1.054,1.054,0,0,0,1.04-1.04,1.118,1.118,0,0,0-1.04-1.04H22.76a3.292,3.292,0,0,1-3.293-3.293V33.147H83.6v20.28a1.054,1.054,0,0,0,1.04,1.04,1.118,1.118,0,0,0,1.04-1.04V27.773A5.272,5.272,0,0,0,80.393,22.4Z" transform="translate(-17.3 -18.5)"/><path class="b" d="M66.04,24.567h9.273a1.054,1.054,0,0,0,1.04-1.04,1.131,1.131,0,0,0-1.04-1.127h-1.82a2.776,2.776,0,0,1,2.513-1.647,2.687,2.687,0,1,1,0,5.373,1.054,1.054,0,0,0-1.04,1.04,1.118,1.118,0,0,0,1.04,1.04,4.853,4.853,0,0,0,0-9.707,4.921,4.921,0,0,0-4.767,3.813h-5.2A1.054,1.054,0,0,0,65,23.353,1.215,1.215,0,0,0,66.04,24.567Z" transform="translate(-23.66 -18.5)"/><path class="b" d="M52.327,24.58a1.054,1.054,0,0,0,1.04-1.04,2.687,2.687,0,1,1,2.687,2.687,1.054,1.054,0,0,0-1.04,1.04,1.118,1.118,0,0,0,1.04,1.04A4.853,4.853,0,1,0,51.2,23.453,1.147,1.147,0,0,0,52.327,24.58Z" transform="translate(-21.82 -18.513)"/><circle class="b" cx="1.04" cy="1.04" r="1.04" transform="translate(43.247 57.027)"/><circle class="b" cx="1.04" cy="1.04" r="1.04" transform="translate(38.913 57.027)"/><circle class="b" cx="1.04" cy="1.04" r="1.04" transform="translate(34.58 57.027)"/><path class="b" d="M54.513,25.18H45.24a1.054,1.054,0,0,1-1.04-1.04,1.118,1.118,0,0,1,1.04-1.04h9.273a1.04,1.04,0,1,1,0,2.08Z" transform="translate(-20.627 -19.113)"/><circle class="b" cx="1.3" cy="1.3" r="1.3" transform="translate(25.998 21.233)"/><circle class="b" cx="1.3" cy="1.3" r="1.3" transform="translate(32.932 21.233)"/><circle class="b" cx="1.3" cy="1.3" r="1.3" transform="translate(39.865 21.233)"/><circle class="b" cx="1.3" cy="1.3" r="1.3" transform="translate(46.798 21.233)"/><circle class="b" cx="1.3" cy="1.3" r="1.3" transform="translate(53.732 21.233)"/><circle class="b" cx="1.3" cy="1.3" r="1.3" transform="translate(12.132 29.034)"/><circle class="b" cx="1.3" cy="1.3" r="1.3" transform="translate(19.065 29.034)"/><circle class="b" cx="1.3" cy="1.3" r="1.3" transform="translate(25.998 29.034)"/><circle class="b" cx="1.3" cy="1.3" r="1.3" transform="translate(32.932 29.034)"/><circle class="b" cx="1.3" cy="1.3" r="1.3" transform="translate(39.865 29.034)"/><circle class="b" cx="1.3" cy="1.3" r="1.3" transform="translate(46.798 29.034)"/><circle class="b" cx="1.3" cy="1.3" r="1.3" transform="translate(53.732 29.034)"/><circle class="b" cx="1.3" cy="1.3" r="1.3" transform="translate(12.132 36.835)"/><circle class="b" cx="1.3" cy="1.3" r="1.3" transform="translate(19.065 36.835)"/><circle class="b" cx="1.3" cy="1.3" r="1.3" transform="translate(25.998 36.835)"/><circle class="b" cx="1.3" cy="1.3" r="1.3" transform="translate(32.932 36.835)"/><circle class="b" cx="1.3" cy="1.3" r="1.3" transform="translate(39.865 36.835)"/><circle class="b" cx="1.3" cy="1.3" r="1.3" transform="translate(46.798 36.835)"/><circle class="b" cx="1.3" cy="1.3" r="1.3" transform="translate(12.132 44.635)"/><circle class="b" cx="1.3" cy="1.3" r="1.3" transform="translate(19.065 44.635)"/><circle class="b" cx="1.3" cy="1.3" r="1.3" transform="translate(25.998 44.635)"/></g></g></svg>