<svg xmlns="http://www.w3.org/2000/svg" xmlns:xlink="http://www.w3.org/1999/xlink" width="36.098" height="36.6" viewBox="0 0 36.098 36.6"><defs><style>.a{fill:none;}.b{fill:#fff;}.c{fill:url(#a);}</style><linearGradient id="a" x1="0.5" y1="-0.105" x2="0.5" y2="0.74" gradientUnits="objectBoundingBox"><stop offset="0" stop-color="#fff" stop-opacity="0.255"/><stop offset="1" stop-color="#fff"/></linearGradient></defs><path class="a" d="M0,0H36.1V36.1H0Z"/><path class="b" d="M4.178,3.746,16.537,1,28.9,3.746a1.5,1.5,0,0,1,1.178,1.468V20.236a9.024,9.024,0,0,1-4.018,7.508L16.537,34.09,7.019,27.744A9.025,9.025,0,0,1,3,20.237V5.214A1.5,1.5,0,0,1,4.177,3.747Zm1.83,2.674V20.236a6.016,6.016,0,0,0,2.679,5.006l7.85,5.234,7.85-5.234a6.016,6.016,0,0,0,2.679-5V6.421L16.537,4.083Z" transform="translate(1.512 2.51)"/><path class="c" d="M14.27,11.52h4.512l-7.52,10.529v-7.52H6.75L14.27,4Z" transform="translate(5.283 6.027)"/></svg>