<svg xmlns="http://www.w3.org/2000/svg" xmlns:xlink="http://www.w3.org/1999/xlink" width="32" height="32" viewBox="0 0 32 32"><defs><style>.a{fill:none;}.b{fill:url(#a);}.c{fill:#fff;}</style><linearGradient id="a" x1="1.131" y1="1.601" x2="0" y2="-0.195" gradientUnits="objectBoundingBox"><stop offset="0" stop-color="#fff" stop-opacity="0"/><stop offset="1" stop-color="#fff"/></linearGradient></defs><path class="a" d="M0,0H32V32H0Z"/><path class="b" d="M21,13a4,4,0,1,0-4-4A3.983,3.983,0,0,0,21,13Zm0,2.667c-.387,0-.827.027-1.293.067a5.627,5.627,0,0,1,2.627,4.6v3.333h8V20.333C30.333,17.227,24.107,15.667,21,15.667Z" transform="translate(0.333 1.667)"/><path class="c" d="M10.333,13a4,4,0,1,0-4-4A3.983,3.983,0,0,0,10.333,13Zm0,2.667C7.227,15.667,1,17.227,1,20.333v3.333H19.667V20.333C19.667,17.227,13.44,15.667,10.333,15.667Z" transform="translate(0.333 1.667)"/></svg>