<svg xmlns="http://www.w3.org/2000/svg" xmlns:xlink="http://www.w3.org/1999/xlink" width="32" height="32" viewBox="0 0 32 32"><defs><style>.a{fill:none;}.b{fill:url(#a);}.c{fill:#fff;}</style><linearGradient id="a" x1="0.183" y1="-1.08" x2="0.072" y2="1.249" gradientUnits="objectBoundingBox"><stop offset="0" stop-color="#fff" stop-opacity="0"/><stop offset="1" stop-color="#fff"/></linearGradient></defs><path class="a" d="M0,0H32V32H0ZM13.333,6.667h5.333V9.333H13.333Zm0,0h5.333V9.333H13.333Z"/><path class="b" d="M12.333,16.333V15H3.013L3,20.333A2.657,2.657,0,0,0,5.667,23H24.333A2.657,2.657,0,0,0,27,20.333V15H17.667v1.333Z" transform="translate(1 5)"/><path class="c" d="M26,8.333H20.653V5.667L17.987,3H12.653L9.987,5.667V8.333H4.667A2.675,2.675,0,0,0,2,11v4a2.657,2.657,0,0,0,2.667,2.667h8V15H18v2.667h8A2.675,2.675,0,0,0,28.667,15V11A2.675,2.675,0,0,0,26,8.333Zm-8,0H12.667V5.667H18Z" transform="translate(0.667 1)"/></svg>