<svg xmlns="http://www.w3.org/2000/svg" xmlns:xlink="http://www.w3.org/1999/xlink" width="32" height="32" viewBox="0 0 32 32"><defs><style>.a{fill:none;}.b{fill:#fff;}.c{fill:url(#a);}</style><linearGradient id="a" x1="1.155" y1="-0.147" x2="0.171" y2="0.842" gradientUnits="objectBoundingBox"><stop offset="0" stop-color="#fff" stop-opacity="0.255"/><stop offset="1" stop-color="#fff"/></linearGradient></defs><path class="a" d="M0,0H32V32H0Z"/><path class="b" d="M2,15.051a13.183,13.183,0,0,1,.417-3.3A3.95,3.95,0,0,0,5.946,5.66a13.19,13.19,0,0,1,5.721-3.3,3.963,3.963,0,0,0,7.057,0,13.19,13.19,0,0,1,5.721,3.3,3.95,3.95,0,0,0,3.53,6.1,13.234,13.234,0,0,1,0,6.592,3.95,3.95,0,0,0-3.53,6.094,13.19,13.19,0,0,1-5.721,3.3,3.963,3.963,0,0,0-7.057,0,13.19,13.19,0,0,1-5.721-3.3,3.95,3.95,0,0,0-3.53-6.1A13.21,13.21,0,0,1,2,15.051ZM8.339,19a6.564,6.564,0,0,1,.744,4.639,10.573,10.573,0,0,0,1.712.987,6.612,6.612,0,0,1,8.8,0,10.573,10.573,0,0,0,1.712-.987,6.58,6.58,0,0,1,4.4-7.6,10.673,10.673,0,0,0,0-1.975,6.579,6.579,0,0,1-4.4-7.6A10.549,10.549,0,0,0,19.6,5.474a6.611,6.611,0,0,1-8.8,0,10.55,10.55,0,0,0-1.712.987,6.58,6.58,0,0,1-4.4,7.6,10.673,10.673,0,0,0,0,1.975A6.586,6.586,0,0,1,8.341,19Z" transform="translate(0.804 0.949)"/><path class="c" d="M13.206,17.411a4.206,4.206,0,1,1,4.206-4.206A4.206,4.206,0,0,1,13.206,17.411Z" transform="translate(2.794 2.794)"/></svg>