<svg xmlns="http://www.w3.org/2000/svg" width="88" height="88" viewBox="0 0 88 88"><defs><style>.a{fill:#f02a2a;opacity:0;}.b{fill:#ff2b03;}.c{fill:#fff;}</style></defs><g transform="translate(-164 -251)"><path class="a" d="M0,0H88V88H0Z" transform="translate(164 251)"/><g transform="translate(180 259)"><path class="b" d="M43.418,59.757,28.74,70.94a1.269,1.269,0,0,1-1.541,0L12.522,59.757A31.958,31.958,0,0,1,0,34.478V11.45a1.272,1.272,0,0,1,1.271-1.271C18.3,10.178,26.927.54,27.014.442A1.269,1.269,0,0,1,27.969.01h0a1.27,1.27,0,0,1,.955.431c.086.1,8.785,9.737,25.744,9.737A1.272,1.272,0,0,1,55.94,11.45V34.478A31.958,31.958,0,0,1,43.418,59.757Z" transform="translate(0 -0.01)"/><path class="c" d="M13.907,28.16a1,1,0,0,1-1-1V15.253H1a1,1,0,0,1-1-1v-.347a1,1,0,0,1,1-1H12.907V1a1,1,0,0,1,1-1h.347a1,1,0,0,1,1,1V12.907H27.16a1,1,0,0,1,1,1v.347a1,1,0,0,1-1,1H15.253V27.16a1,1,0,0,1-1,1Z" transform="translate(28.808 14.525) rotate(47)"/><path class="c" d="M52.877,12.075C38.58,11.7,30.161,5.017,27.45,2.459,24.738,5.017,16.319,11.7,2.023,12.075V33.848a29.4,29.4,0,0,0,11.52,23.258L27.45,67.7l13.907-10.6a29.4,29.4,0,0,0,11.52-23.258ZM39.816,55.085l-11.6,8.833a1.269,1.269,0,0,1-1.541,0l-11.6-8.833A26.851,26.851,0,0,1,4.565,33.848v-18.2a1.271,1.271,0,0,1,1.142-1.264,41.585,41.585,0,0,0,20.976-7.99,1.272,1.272,0,0,1,1.532,0,41.6,41.6,0,0,0,20.977,7.99,1.271,1.271,0,0,1,1.142,1.264v18.2A26.854,26.854,0,0,1,39.816,55.085Z" transform="translate(0.52 0.62)"/></g></g></svg>