<svg xmlns="http://www.w3.org/2000/svg" width="88" height="88" viewBox="0 0 88 88"><defs><style>.a{fill:#fff;opacity:0;}.b{fill:#1b1b1b;}.c{fill:#07ad34;}</style></defs><g transform="translate(-164 -251)"><rect class="a" width="88" height="88" transform="translate(164 251)"/><g transform="translate(180 259)"><path class="b" d="M43.418,59.757,28.74,70.94a1.269,1.269,0,0,1-1.541,0L12.522,59.757A31.958,31.958,0,0,1,0,34.478V11.45a1.272,1.272,0,0,1,1.271-1.271C18.3,10.178,26.927.54,27.014.442A1.269,1.269,0,0,1,27.969.01h0a1.27,1.27,0,0,1,.955.431c.086.1,8.785,9.737,25.744,9.737A1.272,1.272,0,0,1,55.94,11.45V34.478A31.958,31.958,0,0,1,43.418,59.757ZM53.4,12.7C39.1,12.327,30.682,5.647,27.97,3.089,25.258,5.647,16.839,12.327,2.543,12.7V34.478a29.4,29.4,0,0,0,11.52,23.258l13.907,10.6,13.907-10.6A29.4,29.4,0,0,0,53.4,34.478ZM40.336,55.714l-11.6,8.833a1.269,1.269,0,0,1-1.541,0L15.6,55.714A26.851,26.851,0,0,1,5.085,34.478v-18.2a1.271,1.271,0,0,1,1.142-1.264A41.585,41.585,0,0,0,27.2,7.024a1.272,1.272,0,0,1,1.532,0,41.6,41.6,0,0,0,20.977,7.99,1.271,1.271,0,0,1,1.142,1.264v18.2A26.854,26.854,0,0,1,40.336,55.714Zm7.975-38.3a44.142,44.142,0,0,1-20.342-7.8,44.142,44.142,0,0,1-20.342,7.8V34.478a24.293,24.293,0,0,0,9.516,19.214L27.97,61.938,38.8,53.692a24.293,24.293,0,0,0,9.516-19.214Z" transform="translate(0 -0.01)"/><path class="c" d="M22.111,40.326a1.272,1.272,0,0,1-.981.563l-.078,0a1.275,1.275,0,0,1-.965-.444l-6.78-7.91a1.271,1.271,0,0,1,1.93-1.655l5.689,6.636,12.63-18.944a1.272,1.272,0,0,1,2.116,1.411Z" transform="translate(3.527 4.874)"/></g></g></svg>