<svg xmlns="http://www.w3.org/2000/svg" width="48.016" height="48.016" viewBox="0 0 48.016 48.016"><defs><style>.a,.b{fill:#ff2b03;}.a{opacity:0;}</style></defs><g transform="translate(-10468 -1330)"><rect class="a" width="48.016" height="48.016" transform="translate(10468 1330)"/><path class="b" d="M9.255-2.8Q14.2-2.8,16.421.733a12.756,12.756,0,0,1,1.615,3.735,17.578,17.578,0,0,1,.606,4.644,17.42,17.42,0,0,1-2.674,9.49,17.939,17.939,0,0,1-7.922,6.663l-.908-1.817a13.442,13.442,0,0,0,5.1-3.735,10.362,10.362,0,0,0,2.573-5.149,9.574,9.574,0,0,0,.3-2.322,6.028,6.028,0,0,0-.3-1.918,7.562,7.562,0,0,1-5.853,2.423A8.1,8.1,0,0,1,3.2,10.677a7.416,7.416,0,0,1-2.22-5.7A7.325,7.325,0,0,1,3.3-.629,8.37,8.37,0,0,1,9.255-2.8Zm20.789,0Q34.99-2.8,37.21.733a12.756,12.756,0,0,1,1.615,3.735,17.578,17.578,0,0,1,.606,4.644,17.42,17.42,0,0,1-2.674,9.49,17.939,17.939,0,0,1-7.922,6.663l-.908-1.817a13.442,13.442,0,0,0,5.1-3.735A10.362,10.362,0,0,0,35.6,14.564a9.575,9.575,0,0,0,.3-2.322,6.028,6.028,0,0,0-.3-1.918,7.562,7.562,0,0,1-5.853,2.423,8.1,8.1,0,0,1-5.752-2.07,7.416,7.416,0,0,1-2.22-5.7,7.325,7.325,0,0,1,2.321-5.6A8.37,8.37,0,0,1,30.045-2.8Z" transform="translate(10471.02 1342.803)"/></g></svg>